<svg version="1.1" width="200" height="191" xmlns="http://www.w3.org/2000/svg" xmlns:xlink="http://www.w3.org/1999/xlink">
  <!-- Exported by Scratch - http://scratch.mit.edu/ -->
  <path id="_x3C_Slice_x3E__1_" fill="none" d="M -3 -1.521 L 197 -1.521 L 197 166.519 L -3 166.519 L -3 -1.521 Z " transform="matrix(1, 0, 0, 1, 3, 6)"/>
  <g id="g4186" transform="matrix(1, 0, 0, 1, 5, 0.5)">
    <g id="g4188">
      <path id="path4190" fill="none" stroke="#30221e" stroke-width="6" stroke-linecap="round" stroke-linejoin="round" d="M 1027.688 241.225 C 1027.634 241.116 1027.634 241.116 1027.603 241.012 C 1027.220 240.357 1026.975 239.866 1026.975 239.866 C 1007.968 206.721 985.814 181.554 931.699 148.297 C 928.670 146.429 924.915 144.700 920.883 143.040 C 919.734 142.598 918.496 142.157 917.322 141.692 C 913.867 140.423 910.183 139.211 906.189 138.050 C 905.047 137.733 903.997 137.397 902.806 137.035 C 897.643 135.668 892.066 134.335 886.114 133.103 C 884.833 132.852 883.460 132.606 882.182 132.373 C 877.190 131.397 871.993 130.449 866.591 129.618 C 864.711 129.292 862.815 128.991 860.861 128.684 C 854.464 127.743 847.891 126.817 840.998 125.995 C 840.500 125.960 840.041 125.875 839.556 125.820 C 832.232 124.933 824.612 124.165 816.828 123.415 C 814.336 123.165 811.765 122.952 809.238 122.723 C 803.500 122.223 797.717 121.745 791.816 121.276 C 789.273 121.099 786.729 120.885 784.142 120.696 C 776.427 120.152 768.609 119.641 760.700 119.191 C 757.429 118.997 754.129 118.837 750.831 118.675 C 745.780 118.393 740.716 118.122 735.625 117.914 C 731.505 117.683 727.426 117.504 723.311 117.322 C 719.290 117.160 715.265 116.999 711.233 116.865 C 700.783 116.464 690.364 116.109 680.009 115.792 C 679.353 115.777 678.693 115.756 678.034 115.740 C 671.248 115.557 664.551 115.385 657.849 115.219 C 657.802 115.219 657.764 115.219 657.714 115.219 C 657.620 115.219 657.517 115.219 657.422 115.219 C 621.676 113.907 583.292 113.191 543.180 113.067 C 538.547 113.051 533.963 113.016 529.282 113.016 C 528.574 113.016 527.928 112.977 527.234 112.977 C 526.592 112.977 525.983 113.016 525.366 113.016 C 522.217 113.016 519.166 113.030 516.033 113.030 C 506.647 113.051 497.279 113.051 488.101 113.103 C 486.588 113.125 485.127 113.139 483.593 113.176 C 472.941 113.263 462.347 113.384 451.963 113.565 C 443.554 113.729 435.362 113.939 427.165 114.152 C 423.818 114.241 420.364 114.300 417.064 114.381 C 405.475 114.705 394.092 115.094 382.994 115.544 C 374.267 115.777 365.378 116.058 356.540 116.366 C 354.882 116.417 353.229 116.491 351.569 116.538 C 343.021 116.843 334.417 117.162 325.869 117.540 C 325.440 117.572 325.015 117.572 324.601 117.587 C 315.844 118.004 307.131 118.445 298.512 118.909 C 296.494 119.034 294.538 119.162 292.559 119.248 C 285.275 119.716 278.076 120.152 270.984 120.656 C 269.490 120.768 267.940 120.850 266.463 120.976 C 258.306 121.563 250.289 122.247 242.452 122.953 C 240.583 123.130 238.748 123.312 236.914 123.489 C 230.591 124.114 224.443 124.754 218.430 125.449 C 216.572 125.658 214.737 125.856 212.940 126.085 C 205.729 126.944 198.760 127.890 192.113 128.905 C 190.669 129.113 189.358 129.363 187.931 129.591 C 182.517 130.451 177.332 131.362 172.380 132.355 C 170.757 132.676 169.106 132.962 167.516 133.323 C 161.659 134.514 156.083 135.830 151.024 137.205 C 150.277 137.418 149.692 137.636 148.974 137.831 C 144.573 139.057 140.586 140.389 136.884 141.779 C 135.723 142.211 134.585 142.638 133.518 143.102 C 129.489 144.738 125.784 146.449 122.752 148.300 C 68.625 181.558 46.468 206.725 27.477 239.869 C 27.477 239.869 27.229 240.359 26.874 241.015 C 26.836 241.119 26.836 241.119 26.767 241.228 C 23.773 246.960 12.550 271.277 25.860 286.913 L 27.621 699.962 L 27.656 708.337 L 27.656 709.241 L 27.927 767.224 L 28.015 789.845 C 28.428 808.169 34.569 826.823 48.853 839.683 C 51.581 841.750 54.626 843.884 58.063 846.054 C 66.592 851.604 77.497 857.533 91.228 863.446 C 93.916 864.761 96.803 866.042 99.744 867.364 C 103.912 872.229 109.095 877.676 115.598 883.270 C 115.757 883.411 115.968 883.558 116.116 883.699 C 118.875 886.047 121.907 888.416 125.088 890.768 C 126.088 891.499 127.117 892.194 128.119 892.906 C 130.829 894.813 133.729 896.647 136.738 898.485 C 137.914 899.192 139.023 899.886 140.195 900.567 C 144.366 902.931 148.764 905.233 153.483 907.351 C 154.179 907.708 154.962 907.957 155.659 908.261 C 159.754 910.060 164.096 911.738 168.641 913.287 C 170.333 913.876 172.116 914.390 173.899 914.936 C 177.849 916.166 181.981 917.285 186.258 918.268 C 188.128 918.676 189.963 919.157 191.869 919.557 C 198.070 920.780 204.461 921.867 211.320 922.543 C 291.598 930.683 426.506 940.806 527.237 941.477 C 627.964 940.806 762.860 930.683 843.140 922.543 C 850.071 921.845 856.512 920.765 862.782 919.497 C 864.693 919.118 866.512 918.640 868.331 918.234 C 872.746 917.201 876.967 916.074 881.012 914.792 C 882.738 914.265 884.472 913.767 886.118 913.189 C 891.196 911.450 896.056 909.597 900.604 907.539 C 900.883 907.383 901.206 907.259 901.509 907.135 C 906.213 904.989 910.543 902.685 914.674 900.315 C 915.959 899.571 917.166 898.815 918.377 898.067 C 921.385 896.235 924.237 894.387 926.945 892.477 C 927.941 891.747 928.957 891.088 929.901 890.393 C 937.057 885.081 943.066 879.741 948.020 874.682 C 948.314 874.366 948.587 874.060 948.891 873.757 C 951.263 871.295 953.375 868.927 955.269 866.685 C 955.284 866.664 955.322 866.627 955.338 866.592 C 957.959 865.561 960.790 864.495 963.204 863.445 C 976.428 857.115 986.664 851.112 996.392 846.053 C 999.827 843.883 1002.863 841.749 1005.591 839.682 C 1019.903 826.822 1026.053 808.168 1026.427 789.844 L 1026.515 767.223 L 1028.595 286.911 C 1041.905 271.274 1030.664 246.958 1027.688 241.225 Z " transform="matrix(0.185546875, 0, 0, 0.185546875, -2.4, -2.55)"/>
      <g id="g4192">
        <path id="path4194" fill="#9f759f" d="M 527.233 847.871 L 87.201 849.690 C 87.201 849.690 119.425 913.248 211.317 922.542 C 291.595 930.682 426.503 940.805 527.234 941.476 C 627.961 940.805 762.857 930.682 843.137 922.542 C 935.024 913.248 967.213 849.690 967.213 849.690 L 527.233 847.871 Z " transform="matrix(0.185546875, 0, 0, 0.185546875, -2.4, -2.55)"/>
        <g id="g4196">
          <path id="path4198" fill="#f9f4ee" d="M 58.061 846.051 C 54.623 843.881 51.578 841.747 48.851 839.680 C 51.578 842.140 54.624 844.296 58.061 846.051 Z " transform="matrix(0.185546875, 0, 0, 0.185546875, -2.4, -2.55)"/>
          <path id="polygon4200" fill="#f9f4ee" d="M 1010.784 788.612 L 1010.784 788.612 L 1010.784 788.612 L 1010.784 788.612 " transform="matrix(0.185546875, 0, 0, 0.185546875, -2.4, -2.55)"/>
          <path id="path4202" fill="#f9f4ee" d="M 58.061 846.051 C 66.590 851.601 77.495 857.530 91.226 863.443 C 78.030 857.113 67.767 851.110 58.061 846.051 L 58.061 846.051 Z " transform="matrix(0.185546875, 0, 0, 0.185546875, -2.4, -2.55)"/>
          <path id="path4204" fill="#f9f4ee" d="M 1025.034 239.866 C 1006.049 206.721 983.873 181.554 929.760 148.297 C 891.678 124.933 769.361 118.077 662.018 115.350 C 620.325 113.745 574.866 112.956 527.234 113.014 C 479.568 112.956 434.132 113.744 392.417 115.350 C 285.100 118.078 162.782 124.933 124.697 148.297 C 70.563 181.555 48.412 206.722 29.417 239.866 C 29.417 239.866 14.721 265.358 25.076 283.242 C 25.237 284.348 25.503 285.437 25.771 286.575 C 25.784 286.648 25.821 286.731 25.858 286.768 L 27.924 767.220 L 28.012 789.841 C 28.425 808.165 34.566 826.819 48.850 839.679 C 51.578 841.746 54.623 843.880 58.060 846.050 C 67.766 851.109 78.029 857.112 91.225 863.442 C 126.917 880.614 184.386 899.994 312.226 907.574 C 312.457 907.574 312.726 907.574 312.986 907.574 C 323.605 908.238 334.168 908.809 344.683 909.345 C 409.192 912.674 470.498 914.334 527.233 914.224 C 583.932 914.334 645.258 912.674 709.775 909.345 C 720.266 908.810 730.849 908.239 741.465 907.574 C 852.648 900.154 921.297 881.666 963.201 863.442 C 976.425 857.112 986.661 851.109 996.389 846.050 C 999.824 843.880 1002.860 841.746 1005.588 839.679 C 1019.900 826.819 1026.050 808.165 1026.424 789.841 L 1026.512 767.220 L 1028.592 286.768 C 1028.631 286.731 1028.667 286.647 1028.667 286.575 C 1028.932 285.437 1029.202 284.347 1029.384 283.242 C 1039.751 265.358 1025.034 239.866 1025.034 239.866 Z " transform="matrix(0.185546875, 0, 0, 0.185546875, -2.4, -2.55)"/>
        </g>
        <path id="path4206" fill="#9684b8" d="M 1026.270 274.584 C 1017.053 307.686 799.480 337.125 527.576 340.633 C 527.467 340.633 527.341 340.633 527.234 340.633 C 527.134 340.633 527.004 340.633 526.865 340.633 C 254.994 337.125 37.415 307.686 28.192 274.584 C 23.610 278.614 24.821 282.655 25.771 286.576 C 35.709 327.454 179.753 368.012 527.234 370.276 C 874.699 368.012 1018.729 327.454 1028.668 286.576 C 1029.649 282.655 1030.840 278.614 1026.270 274.584 Z " transform="matrix(0.185546875, 0, 0, 0.185546875, -2.4, -2.55)"/>
        <path id="path4208" fill="#69c8ca" d="M 567.584 352.121 C 808.420 358.127 979.802 309.914 1015.523 295.907 C 1051.237 281.873 1026.974 239.867 1026.974 239.867 C 1007.967 206.722 985.813 181.555 931.698 148.298 C 877.580 115.079 653.363 115.218 543.818 113.210 C 538.438 113.086 532.902 113.050 527.233 112.976 C 521.571 113.051 515.997 113.086 510.631 113.210 C 401.089 115.218 176.868 115.079 122.750 148.298 C 68.623 181.556 46.466 206.723 27.475 239.867 C 27.475 239.867 3.217 281.873 38.913 295.907 C 74.645 309.914 246.054 358.127 486.838 352.121 L 567.584 352.121 Z " transform="matrix(0.185546875, 0, 0, 0.185546875, -2.4, -2.55)"/>
        <g id="g4210">
          <g id="g4212">
            <path id="path4214" fill="#99364a" d="M 886.576 142.062 C 893.868 145.002 897.786 148.050 897.764 151.183 C 897.727 171.777 731.774 187.985 527.171 187.434 C 322.521 186.876 156.709 169.797 156.782 149.247 C 156.782 146.089 160.696 143.077 168.003 140.142 C 144.487 146.288 131.285 153.161 131.257 160.466 C 131.221 187.215 308.430 209.391 527.097 210.001 C 745.781 210.566 923.118 189.333 923.183 162.563 C 923.218 155.262 910.039 148.332 886.576 142.062 Z " transform="matrix(0.185546875, 0, 0, 0.185546875, -2.4, -2.55)"/>
          </g>
          <path id="path4216" fill="#f9f4ee" d="M 897.763 151.183 C 897.726 171.777 731.773 187.985 527.170 187.434 C 322.520 186.876 156.708 169.797 156.781 149.247 C 156.809 128.648 322.729 112.460 527.362 113.014 C 731.955 113.550 897.838 130.642 897.763 151.183 Z " transform="matrix(0.185546875, 0, 0, 0.185546875, -2.4, -2.55)"/>
        </g>
        <g id="g4218">
          <path id="path4220" fill="#30221e" d="M 428.569 677.478 C 430.180 714.496 401.481 745.859 364.450 747.460 C 327.436 749.083 296.069 720.392 294.445 683.342 C 292.865 646.312 321.557 614.978 358.594 613.359 C 395.622 611.735 426.953 640.470 428.569 677.478 Z " transform="matrix(0.185546875, 0, 0, 0.185546875, -2.4, -2.55)"/>
          <path id="path4222" fill="#e12342" opacity="0.7" d="M 273.904 765.687 C 273.795 776.221 248.500 784.535 217.370 784.259 C 186.294 783.995 161.139 775.264 161.239 764.730 C 161.292 754.245 186.590 745.930 217.696 746.185 C 248.808 746.445 273.966 755.144 273.904 765.687 Z " transform="matrix(0.185546875, 0, 0, 0.185546875, -2.4, -2.55)"/>
          <path id="path4224" fill="#e12342" opacity="0.7" d="M 772.118 765.687 C 772.227 776.221 797.524 784.535 828.653 784.259 C 859.729 783.995 884.884 775.264 884.784 764.730 C 884.731 754.245 859.432 745.930 828.326 746.185 C 797.213 746.445 772.056 755.144 772.118 765.687 Z " transform="matrix(0.185546875, 0, 0, 0.185546875, -2.4, -2.55)"/>
        </g>
        <g id="g4226">
          <path id="path4228" fill="#30221e" d="M 617.472 677.478 C 615.847 714.496 644.559 745.859 681.596 747.460 C 718.616 749.083 749.970 720.392 751.585 683.342 C 753.187 646.312 724.486 614.978 687.453 613.359 C 650.428 611.735 619.094 640.470 617.472 677.478 Z " transform="matrix(0.185546875, 0, 0, 0.185546875, -2.4, -2.55)"/>
        </g>
        <path id="path4230" fill="#9dd7d8" d="M 937.947 726.040 C 933.531 727.072 930.343 726.910 928.599 725.666 C 923.253 721.866 921.381 705.262 919.194 686.071 C 917.163 668.003 914.618 645.526 908.239 619.755 C 888.396 539.781 835.139 514.904 796.804 503.172 C 745.222 487.391 685.371 486.199 632.627 500.040 C 584.490 512.683 569.039 516.353 536.176 517.425 C 532.119 517.533 527.877 517.866 523.011 517.851 C 518.040 517.991 513.909 517.764 509.848 517.690 C 476.986 517.191 461.415 508.105 413.057 496.435 C 360.033 483.615 300.164 480.175 248.904 496.971 C 210.799 509.407 158.028 535.287 139.728 615.624 C 133.813 641.501 131.709 664.066 130.023 682.131 C 128.224 701.367 126.636 717.988 121.366 721.889 C 119.633 723.186 116.464 723.406 112.012 722.479 C 78.130 715.532 28.081 690.326 27.651 690.074 L 27.651 709.240 C 29.450 710.224 72.164 731.776 108.542 739.238 C 111.209 739.810 113.741 740.114 116.112 740.178 C 122.199 740.324 127.315 738.830 131.572 735.677 C 143.005 727.217 144.606 709.922 147.064 683.735 C 148.725 666.121 150.776 644.263 156.415 619.450 C 172.589 548.364 217.194 525.370 254.210 513.221 C 302.547 497.403 359.018 500.983 409.031 513.075 C 457.785 524.870 474.848 534.330 509.640 534.793 C 513.880 534.844 518.221 535.128 523.193 534.991 C 528.052 535.027 532.485 534.684 536.742 534.539 C 571.496 533.413 588.436 529.341 636.957 516.641 C 686.726 503.584 743.148 504.652 791.777 519.564 C 829.049 530.959 874.057 553.155 891.579 623.852 C 897.725 648.579 900.188 670.415 902.181 687.977 C 905.120 714.138 907.080 731.388 918.644 739.650 C 922.966 742.710 928.102 744.114 934.166 743.835 C 936.600 743.725 939.070 743.354 941.745 742.748 C 977.956 734.594 1024.997 708.956 1026.755 707.963 L 1026.850 688.800 C 1026.438 689.041 971.685 718.448 937.947 726.040 Z " transform="matrix(0.185546875, 0, 0, 0.185546875, -2.4, -2.55)"/>
      </g>
    </g>
    <path id="_x3C_Slice_x3E_" fill="none" d="M 14.384 16.135 L 1038.384 16.135 L 1038.384 1040.135 L 14.384 1040.135 L 14.384 16.135 Z " transform="matrix(0.185546875, 0, 0, 0.185546875, -2.4, -2.55)"/>
  </g>
</svg>